<svg width="17" height="18" viewBox="0 0 17 18" fill="none" xmlns="http://www.w3.org/2000/svg">
<path d="M9.10822 17.8676C8.64126 17.8674 8.17496 17.8323 7.71322 17.7626C5.69106 17.4429 3.83478 16.4535 2.44187 14.9531C1.04895 13.4527 0.200034 11.5282 0.031161 9.48784C-0.137712 7.44752 0.383233 5.40958 1.51052 3.7006C2.6378 1.99161 4.30615 0.710526 6.24822 0.0626344C6.45605 -0.00801813 6.67949 -0.0191452 6.89331 0.0305101C7.10713 0.0801654 7.3028 0.188624 7.45822 0.343634C7.62662 0.508049 7.74615 0.715931 7.80352 0.944186C7.8609 1.17244 7.85387 1.41213 7.78322 1.63663C7.51649 2.50394 7.39717 3.40985 7.43022 4.31663C7.50557 5.73888 7.94712 7.11753 8.71207 8.31892C9.47702 9.5203 10.5394 10.5037 11.7962 11.1736C12.9283 11.8158 14.2058 12.1576 15.5072 12.1666C15.7339 12.1698 15.9553 12.2349 16.1476 12.3549C16.3399 12.4749 16.4957 12.6452 16.598 12.8474C16.7004 13.0496 16.7455 13.276 16.7285 13.502C16.7114 13.7281 16.6328 13.9451 16.5012 14.1296C15.6499 15.2904 14.5367 16.2339 13.2521 16.8835C11.9675 17.533 10.5477 17.8702 9.10822 17.8676ZM6.62822 1.00063C6.60611 1.00087 6.58418 1.00458 6.56322 1.01163C5.34752 1.41507 4.24424 2.0998 3.34313 3.01012C2.44203 3.92045 1.76856 5.03064 1.37752 6.25038C0.986485 7.47012 0.888925 8.76495 1.09278 10.0295C1.29664 11.2941 1.79615 12.4926 2.55068 13.5277C3.3052 14.5628 4.29343 15.4051 5.43495 15.9861C6.57647 16.5672 7.83904 16.8705 9.11993 16.8715C10.4008 16.8725 11.6638 16.571 12.8062 15.9917C13.9486 15.4124 14.9381 14.5716 15.6942 13.5376C15.718 13.5035 15.7318 13.4635 15.7341 13.422C15.7364 13.3805 15.7271 13.3392 15.7072 13.3026C15.6892 13.2629 15.6602 13.229 15.6238 13.205C15.5874 13.1809 15.5449 13.1676 15.5012 13.1666C14.033 13.1574 12.5914 12.7733 11.3132 12.0506C9.90506 11.2964 8.7156 10.1912 7.8601 8.84216C7.0046 7.49312 6.51206 5.94597 6.43022 4.35063C6.3947 3.33267 6.5299 2.31594 6.83022 1.34263C6.84551 1.29333 6.84717 1.2408 6.83502 1.19062C6.82288 1.14044 6.79737 1.09449 6.76122 1.05763C6.74405 1.03964 6.72342 1.02531 6.70056 1.01551C6.6777 1.00571 6.65309 1.00065 6.62822 1.00063Z" fill="white"/>
</svg>
