<svg width="30" height="30" viewBox="0 0 30 30" fill="none" xmlns="http://www.w3.org/2000/svg">
<rect x="0.5" y="0.5" width="29" height="29" rx="14.5" stroke="white"/>
<g clip-path="url(#clip0_577_5206)">
<path d="M15.4987 19.0404C14.5188 19.0404 13.6835 18.6949 12.9926 18.0041C12.3018 17.3132 11.9566 16.4781 11.957 15.4987C11.957 14.5188 12.3025 13.6835 12.9933 12.9926C13.6842 12.3018 14.5193 11.9566 15.4987 11.957C16.4786 11.957 17.3139 12.3025 18.0048 12.9933C18.6956 13.6842 19.0408 14.5193 19.0404 15.4987C19.0404 16.4786 18.6949 17.3139 18.0041 18.0048C17.3132 18.6956 16.4781 19.0408 15.4987 19.0404ZM8.41537 16.207C8.21467 16.207 8.04633 16.139 7.91033 16.003C7.77433 15.867 7.70656 15.6989 7.70703 15.4987C7.70703 15.298 7.77503 15.1297 7.91103 14.9937C8.04703 14.8577 8.21514 14.7899 8.41537 14.7904H9.83203C10.0327 14.7904 10.2011 14.8584 10.3371 14.9944C10.4731 15.1304 10.5408 15.2985 10.5404 15.4987C10.5404 15.6994 10.4724 15.8677 10.3364 16.0037C10.2004 16.1397 10.0323 16.2075 9.83203 16.207H8.41537ZM21.1654 16.207C20.9647 16.207 20.7963 16.139 20.6603 16.003C20.5243 15.867 20.4566 15.6989 20.457 15.4987C20.457 15.298 20.525 15.1297 20.661 14.9937C20.797 14.8577 20.9651 14.7899 21.1654 14.7904H22.582C22.7827 14.7904 22.9511 14.8584 23.0871 14.9944C23.2231 15.1304 23.2908 15.2985 23.2904 15.4987C23.2904 15.6994 23.2224 15.8677 23.0864 16.0037C22.9504 16.1397 22.7823 16.2075 22.582 16.207H21.1654ZM15.4987 10.5404C15.298 10.5404 15.1297 10.4724 14.9937 10.3364C14.8577 10.2004 14.7899 10.0323 14.7904 9.83203V8.41537C14.7904 8.21467 14.8584 8.04633 14.9944 7.91033C15.1304 7.77433 15.2985 7.70656 15.4987 7.70703C15.6994 7.70703 15.8677 7.77503 16.0037 7.91103C16.1397 8.04703 16.2075 8.21514 16.207 8.41537V9.83203C16.207 10.0327 16.139 10.2011 16.003 10.3371C15.867 10.4731 15.6989 10.5408 15.4987 10.5404ZM15.4987 23.2904C15.298 23.2904 15.1297 23.2224 14.9937 23.0864C14.8577 22.9504 14.7899 22.7823 14.7904 22.582V21.1654C14.7904 20.9647 14.8584 20.7963 14.9944 20.6603C15.1304 20.5243 15.2985 20.4566 15.4987 20.457C15.6994 20.457 15.8677 20.525 16.0037 20.661C16.1397 20.797 16.2075 20.9651 16.207 21.1654V22.582C16.207 22.7827 16.139 22.9511 16.003 23.0871C15.867 23.2231 15.6989 23.2908 15.4987 23.2904ZM11.0008 11.9925L10.2393 11.2487C10.0977 11.1188 10.0297 10.9536 10.0353 10.7529C10.041 10.5522 10.109 10.381 10.2393 10.2393C10.381 10.0977 10.5522 10.0268 10.7529 10.0268C10.9536 10.0268 11.1188 10.0977 11.2487 10.2393L11.9925 11.0008C12.1223 11.1425 12.1872 11.3077 12.1872 11.4966C12.1872 11.6855 12.1223 11.8508 11.9925 11.9925C11.8626 12.1341 11.7004 12.2021 11.5058 12.1965C11.3113 12.1908 11.1429 12.1228 11.0008 11.9925ZM19.7487 20.7581L19.005 19.9966C18.8751 19.855 18.8102 19.6866 18.8102 19.4916C18.8102 19.2965 18.8751 19.1343 19.005 19.005C19.1348 18.8633 19.2973 18.7955 19.4923 18.8017C19.6873 18.8078 19.8554 18.8756 19.9966 19.005L20.7581 19.7487C20.8997 19.8786 20.9677 20.0438 20.9621 20.2445C20.9564 20.4452 20.8884 20.6164 20.7581 20.7581C20.6164 20.8997 20.4452 20.9706 20.2445 20.9706C20.0438 20.9706 19.8786 20.8997 19.7487 20.7581ZM19.005 11.9925C18.8633 11.8626 18.7953 11.7004 18.801 11.5058C18.8066 11.3113 18.8746 11.1429 19.005 11.0008L19.7487 10.2393C19.8786 10.0977 20.0438 10.0297 20.2445 10.0353C20.4452 10.041 20.6164 10.109 20.7581 10.2393C20.8997 10.381 20.9706 10.5522 20.9706 10.7529C20.9706 10.9536 20.8997 11.1188 20.7581 11.2487L19.9966 11.9925C19.855 12.1223 19.6897 12.1872 19.5008 12.1872C19.3119 12.1872 19.1466 12.1223 19.005 11.9925ZM10.2393 20.7581C10.0977 20.6164 10.0268 20.4452 10.0268 20.2445C10.0268 20.0438 10.0977 19.8786 10.2393 19.7487L11.0008 19.005C11.1425 18.8751 11.3106 18.8102 11.5051 18.8102C11.6997 18.8102 11.8621 18.8751 11.9925 19.005C12.1341 19.1348 12.2021 19.2973 12.1965 19.4923C12.1908 19.6873 12.1228 19.8554 11.9925 19.9966L11.2487 20.7581C11.1188 20.8997 10.9536 20.9677 10.7529 20.9621C10.5522 20.9564 10.381 20.8884 10.2393 20.7581Z" fill="white"/>
</g>
<defs>
<clipPath id="clip0_577_5206">
<rect width="17" height="17" fill="white" transform="translate(7 7)"/>
</clipPath>
</defs>
</svg>
