<svg width="26" height="26" viewBox="0 0 26 26" fill="none" xmlns="http://www.w3.org/2000/svg">
<path d="M12.9981 6.15625C7.97806 6.15625 3.28606 8.65025 0.467062 12.8132C0.342754 12.9975 0.256234 13.2045 0.212515 13.4224C0.168795 13.6403 0.168745 13.8648 0.212366 14.0827C0.255987 14.3006 0.342414 14.5077 0.466639 14.692C0.590864 14.8763 0.750419 15.0341 0.936062 15.1562C1.22806 15.3562 1.54406 15.4692 1.87306 15.4692C2.41906 15.4692 2.98106 15.2042 3.31106 14.7192C3.41506 14.5642 3.54306 14.4292 3.65406 14.2812C4.32422 16.2257 5.58492 17.9124 7.26011 19.1057C8.9353 20.299 10.9413 20.9393 12.9981 20.9373C15.0548 20.9394 17.0609 20.2992 18.7361 19.1059C20.4114 17.9126 21.672 16.2258 22.3421 14.2812C22.4521 14.4303 22.5811 14.5642 22.6851 14.7192C23.2101 15.4972 24.2801 15.6823 25.0601 15.1562C25.2458 15.034 25.4055 14.8762 25.5298 14.6919C25.6542 14.5075 25.7407 14.3004 25.7844 14.0824C25.8281 13.8644 25.8281 13.6398 25.7845 13.4218C25.7408 13.2038 25.6543 12.9966 25.5301 12.8123C24.1444 10.763 22.2774 9.08477 20.0926 7.92455C17.9078 6.76433 15.4718 6.15651 12.9981 6.15625ZM12.9981 9.78125C13.8511 9.78336 14.6687 10.1232 15.2719 10.7264C15.8751 11.3296 16.215 12.1472 16.2171 13.0002C16.215 13.8533 15.8751 14.6709 15.2719 15.2741C14.6687 15.8773 13.8511 16.2171 12.9981 16.2192C12.145 16.2171 11.3274 15.8773 10.7242 15.2741C10.121 14.6709 9.78117 13.8533 9.77906 13.0002C9.78117 12.1472 10.121 11.3296 10.7242 10.7264C11.3274 10.1232 12.145 9.78336 12.9981 9.78125ZM16.9671 10.2502C18.6371 10.8502 20.1241 11.8392 21.3731 13.1252C20.4401 16.8832 17.0411 19.6882 12.9981 19.6882C8.95506 19.6882 5.55606 16.8832 4.62306 13.1252C5.85739 11.8558 7.36397 10.8833 9.02906 10.2812C8.5341 11.004 8.2458 11.8481 8.19526 12.7226C8.14472 13.5971 8.33385 14.4688 8.74226 15.2438C9.15067 16.0187 9.76286 16.6675 10.5128 17.1201C11.2628 17.5727 12.1221 17.812 12.9981 17.8123C13.6301 17.8124 14.2559 17.688 14.8398 17.4462C15.4238 17.2045 15.9544 16.8501 16.4013 16.4032C16.8482 15.9564 17.2028 15.4258 17.4447 14.842C17.6866 14.2581 17.8111 13.6323 17.8111 13.0002C17.8183 12.0187 17.5237 11.0587 16.9671 10.2502Z" fill="white"/>
<path d="M22 3L4.5 24" stroke="white" stroke-width="3"/>
</svg>
