<svg width="19" height="19" viewBox="0 0 19 19" fill="none" xmlns="http://www.w3.org/2000/svg">
<path d="M3.55021 13.3242C2.04187 13.7896 1.10938 14.4325 1.10938 15.1427C1.10938 16.5629 4.84021 17.7141 9.44271 17.7141C14.0452 17.7141 17.776 16.5629 17.776 15.1427C17.776 14.4325 16.8431 13.7896 15.3352 13.3242" stroke="white" stroke-width="2" stroke-linecap="round" stroke-linejoin="round"/>
<path d="M9.44401 14.2858C9.44401 14.2858 14.8607 10.6446 14.8607 6.43516C14.8607 3.43344 12.4357 1 9.44401 1C6.45234 1 4.02734 3.43344 4.02734 6.43516C4.02734 10.6446 9.44401 14.2858 9.44401 14.2858Z" stroke="white" stroke-width="2" stroke-linejoin="round"/>
<path d="M9.44271 8.71151C9.99524 8.71151 10.5251 8.48575 10.9158 8.08388C11.3065 7.68202 11.526 7.13697 11.526 6.56865C11.526 6.00032 11.3065 5.45528 10.9158 5.05341C10.5251 4.65155 9.99524 4.42578 9.44271 4.42578C8.89017 4.42578 8.36027 4.65155 7.96957 5.05341C7.57887 5.45528 7.35938 6.00032 7.35938 6.56865C7.35938 7.13697 7.57887 7.68202 7.96957 8.08388C8.36027 8.48575 8.89017 8.71151 9.44271 8.71151Z" stroke="white" stroke-width="2" stroke-linejoin="round"/>
</svg>
