<svg width="20" height="20" viewBox="0 0 20 20" fill="none" xmlns="http://www.w3.org/2000/svg">
<path d="M10.3097 7.85684C11.23 7.85684 12.1126 7.49563 12.7633 6.85268C13.414 6.20972 13.7796 5.33769 13.7796 4.42842C13.7796 3.51915 13.414 2.64711 12.7633 2.00416C12.1126 1.36121 11.23 1 10.3097 1C9.38945 1 8.50688 1.36121 7.85615 2.00416C7.20542 2.64711 6.83984 3.51915 6.83984 4.42842C6.83984 5.33769 7.20542 6.20972 7.85615 6.85268C8.50688 7.49563 9.38945 7.85684 10.3097 7.85684Z" stroke="white" stroke-width="2" stroke-linejoin="round"/>
<path d="M10.3114 7.85547V15.5694M6.84154 12.9981H5.1066L1.63672 18.1407H18.9861L15.5162 12.9981H13.7813" stroke="white" stroke-width="2" stroke-linecap="round" stroke-linejoin="round"/>
</svg>
