<svg width="19" height="22" viewBox="0 0 19 22" fill="none" xmlns="http://www.w3.org/2000/svg">
<path d="M9.25576 1.65036L9.25563 1.65069L9.04094 2.181C9.04093 2.18102 9.04092 2.18104 9.04091 2.18106C7.37077 6.3047 5.91685 9.84469 2.17123 11.6896L2.17101 11.6897C1.10387 12.216 0.312188 13.3811 0.53833 14.7024L0.538341 14.7024L0.881876 16.7081C0.881882 16.7082 0.881888 16.7082 0.881894 16.7082C0.994519 17.3665 1.29647 17.9785 1.7508 18.4738C2.20503 18.969 2.79281 19.327 3.44499 19.5083L3.44504 19.5084L9.79576 21.2731C9.79578 21.2731 9.7958 21.2731 9.79582 21.2731C10.5996 21.4965 11.4418 21.5558 12.27 21.4472C13.0981 21.3387 13.8949 21.0647 14.6102 20.6417C15.3255 20.2188 15.9443 19.6558 16.427 18.9876C16.9097 18.3193 17.2457 17.5604 17.4132 16.7582L17.4132 16.7581L18.4274 11.8996C18.5344 11.3874 18.523 10.8583 18.3941 10.3509C18.2653 9.84363 18.0224 9.37157 17.684 8.96862C17.3456 8.56572 16.9203 8.24209 16.4395 8.02022C15.9587 7.79837 15.4339 7.68356 14.9029 7.68358C14.9029 7.68358 14.9029 7.68358 14.9029 7.68358H13.7294C13.9324 6.59131 14.012 5.40692 13.8971 4.32951L13.897 4.32913C13.7412 2.87854 13.149 1.0485 11.3532 0.561827C10.2993 0.275392 9.51435 1.01291 9.25576 1.65036ZM1.03114 14.618L1.03112 14.618L1.03114 14.618Z" stroke="white"/>
</svg>
