<svg width="31" height="31" viewBox="0 0 31 31" fill="none" xmlns="http://www.w3.org/2000/svg">
<g clip-path="url(#clip0_577_6595)">
<path d="M27.2808 28.1008C28.6504 28.1008 29.7608 27.0263 29.7608 25.7008C29.7608 24.3753 28.6504 23.3008 27.2808 23.3008C25.9111 23.3008 24.8008 24.3753 24.8008 25.7008C24.8008 27.0263 25.9111 28.1008 27.2808 28.1008Z" fill="#01343B"/>
<path d="M9.30031 28.1008C10.67 28.1008 11.7803 27.0263 11.7803 25.7008C11.7803 24.3753 10.67 23.3008 9.30031 23.3008C7.93065 23.3008 6.82031 24.3753 6.82031 25.7008C6.82031 27.0263 7.93065 28.1008 9.30031 28.1008Z" fill="#01343B"/>
<path d="M29.14 20.3016H9.77802L10.1916 19.6524C10.3689 19.374 10.421 19.0374 10.336 18.7206L9.9324 17.217L27.9019 16.3134C28.5832 16.2798 29.14 15.7116 29.14 15.0516V7.10156C29.14 6.44156 28.582 5.90156 27.9 5.90156H6.89378L6.65136 4.99976C6.5823 4.74256 6.42696 4.51482 6.20973 4.35226C5.99249 4.1897 5.72564 4.10152 5.45104 4.10156H1.24C0.911132 4.10156 0.595733 4.22799 0.363188 4.45303C0.130643 4.67808 0 4.9833 0 5.30156C0 5.61982 0.130643 5.92505 0.363188 6.15009C0.595733 6.37513 0.911132 6.50156 1.24 6.50156H4.49252L7.80332 18.8286L6.50132 20.8716C6.38551 21.0533 6.32198 21.2618 6.31729 21.4753C6.3126 21.6888 6.36693 21.8996 6.47466 22.086C6.58195 22.2726 6.73882 22.428 6.92904 22.5363C7.11925 22.6445 7.3359 22.7016 7.55656 22.7016H29.14C29.4689 22.7016 29.7843 22.5751 30.0168 22.3501C30.2494 22.125 30.38 21.8198 30.38 21.5016C30.38 21.1833 30.2494 20.8781 30.0168 20.653C29.7843 20.428 29.4689 20.3016 29.14 20.3016Z" fill="#01343B"/>
</g>
<defs>
<clipPath id="clip0_577_6595">
<rect width="31" height="30" fill="white" transform="translate(0 0.5)"/>
</clipPath>
</defs>
</svg>
