<svg width="19" height="19" viewBox="0 0 19 19" fill="none" xmlns="http://www.w3.org/2000/svg">
<path d="M8.92755 0.5V3.35634H10.0726V0.5H8.92744H8.92755ZM4.25202 1.35837L3.31391 1.91492L5.24712 4.25411L6.18472 3.69755L4.25202 1.35837ZM14.7479 1.35837L12.8152 3.69757L13.7529 4.25412L15.6861 1.91492L14.748 1.35837H14.7479ZM9.49981 4.13786C6.69873 4.13786 4.42804 5.5791 4.42804 7.35723L7.30959 14.7515H11.6905L14.5718 7.35723C14.5718 5.57913 12.3013 4.13786 9.50008 4.13786H9.49981ZM0.391218 4.99509L0 5.9073L3.16616 6.88402L3.55883 5.97224L0.391147 4.99509H0.391218ZM18.6087 4.99509L15.441 5.97232L15.8323 6.88419L19 5.90732L18.6087 4.99509ZM3.40587 9.16522L0.150298 9.9051L0.44569 10.8416L3.70126 10.1027L3.40592 9.16522H3.40587ZM15.594 9.16522L15.2988 10.1027L18.5544 10.8414L18.8496 9.90495L15.594 9.16518V9.16522ZM7.24571 15.2905V16.5758H11.7544V15.2907H7.24573L7.24571 15.2905ZM7.24571 17.2147V18.5H11.7544V17.2149H7.24573L7.24571 17.2147Z" fill="white"/>
</svg>
