<svg width="30" height="30" viewBox="0 0 30 30" fill="none" xmlns="http://www.w3.org/2000/svg">
<path d="M26.25 15V6.25C26.25 5.58696 25.9866 4.95107 25.5178 4.48223C25.0489 4.01339 24.413 3.75 23.75 3.75H6.25C5.58696 3.75 4.95107 4.01339 4.48223 4.48223C4.01339 4.95107 3.75 5.58696 3.75 6.25V20M26.25 15V23.75C26.25 24.413 25.9866 25.0489 25.5178 25.5178C25.0489 25.9866 24.413 26.25 23.75 26.25H20M26.25 15C18.1975 15 13.6187 17.4813 11.1812 20.3038M3.75 20V23.75C3.75 24.413 4.01339 25.0489 4.48223 25.5178C4.95107 25.9866 5.58696 26.25 6.25 26.25H20M3.75 20C5.50375 19.7075 8.29625 19.6338 11.1812 20.3038M20 26.25C17.87 22.79 14.4662 21.065 11.1812 20.3038M10.625 8.75C10 8.75 8.75 9.125 8.75 10.625C8.75 12.125 10 12.5 10.625 12.5C11.25 12.5 12.5 12.125 12.5 10.625C12.5 9.125 11.25 8.75 10.625 8.75Z" stroke="white" stroke-width="2" stroke-linecap="round" stroke-linejoin="round"/>
</svg>
