<svg width="30" height="30" viewBox="0 0 30 30" fill="none" xmlns="http://www.w3.org/2000/svg">
<path fill-rule="evenodd" clip-rule="evenodd" d="M19 5.25C19 4.91848 19.1317 4.60054 19.3661 4.36612C19.6005 4.1317 19.9185 4 20.25 4H22.75C23.7446 4 24.6984 4.39509 25.4017 5.09835C26.1049 5.80161 26.5 6.75544 26.5 7.75V10.25C26.5 10.5815 26.3683 10.8995 26.1339 11.1339C25.8995 11.3683 25.5815 11.5 25.25 11.5C24.9185 11.5 24.6005 11.3683 24.3661 11.1339C24.1317 10.8995 24 10.5815 24 10.25V7.75C24 7.41848 23.8683 7.10054 23.6339 6.86612C23.3995 6.6317 23.0815 6.5 22.75 6.5H20.25C19.9185 6.5 19.6005 6.3683 19.3661 6.13388C19.1317 5.89946 19 5.58152 19 5.25ZM4 15.25C4 14.7527 4.19754 14.2758 4.54917 13.9242C4.90081 13.5725 5.37772 13.375 5.875 13.375H24.625C25.1223 13.375 25.5992 13.5725 25.9508 13.9242C26.3025 14.2758 26.5 14.7527 26.5 15.25C26.5 15.7473 26.3025 16.2242 25.9508 16.5758C25.5992 16.9275 25.1223 17.125 24.625 17.125H5.875C5.37772 17.125 4.90081 16.9275 4.54917 16.5758C4.19754 16.2242 4 15.7473 4 15.25ZM10.25 26.5C10.5815 26.5 10.8995 26.3683 11.1339 26.1339C11.3683 25.8995 11.5 25.5815 11.5 25.25C11.5 24.9185 11.3683 24.6005 11.1339 24.3661C10.8995 24.1317 10.5815 24 10.25 24H7.75C7.41848 24 7.10054 23.8683 6.86612 23.6339C6.6317 23.3995 6.5 23.0815 6.5 22.75V20.25C6.5 19.9185 6.3683 19.6005 6.13388 19.3661C5.89946 19.1317 5.58152 19 5.25 19C4.91848 19 4.60054 19.1317 4.36612 19.3661C4.1317 19.6005 4 19.9185 4 20.25V22.75C4 23.7446 4.39509 24.6984 5.09835 25.4017C5.80161 26.1049 6.75544 26.5 7.75 26.5H10.25ZM25.25 19C25.5815 19 25.8995 19.1317 26.1339 19.3661C26.3683 19.6005 26.5 19.9185 26.5 20.25V22.75C26.5 23.7446 26.1049 24.6984 25.4017 25.4017C24.6984 26.1049 23.7446 26.5 22.75 26.5H20.25C19.9185 26.5 19.6005 26.3683 19.3661 26.1339C19.1317 25.8995 19 25.5815 19 25.25C19 24.9185 19.1317 24.6005 19.3661 24.3661C19.6005 24.1317 19.9185 24 20.25 24H22.75C23.0815 24 23.3995 23.8683 23.6339 23.6339C23.8683 23.3995 24 23.0815 24 22.75V20.25C24 19.9185 24.1317 19.6005 24.3661 19.3661C24.6005 19.1317 24.9185 19 25.25 19ZM4 10.25C4 10.5815 4.1317 10.8995 4.36612 11.1339C4.60054 11.3683 4.91848 11.5 5.25 11.5C5.58152 11.5 5.89946 11.3683 6.13388 11.1339C6.3683 10.8995 6.5 10.5815 6.5 10.25V7.75C6.5 7.41848 6.6317 7.10054 6.86612 6.86612C7.10054 6.6317 7.41848 6.5 7.75 6.5H10.25C10.5815 6.5 10.8995 6.3683 11.1339 6.13388C11.3683 5.89946 11.5 5.58152 11.5 5.25C11.5 4.91848 11.3683 4.60054 11.1339 4.36612C10.8995 4.1317 10.5815 4 10.25 4H7.75C6.75544 4 5.80161 4.39509 5.09835 5.09835C4.39509 5.80161 4 6.75544 4 7.75V10.25Z" fill="white"/>
</svg>
