<svg width="28" height="24" viewBox="0 0 28 24" fill="none" xmlns="http://www.w3.org/2000/svg">
<path d="M6 5.31282H26L23.4624 14.5059C23.2712 15.1979 22.8675 15.8067 22.3124 16.24C21.7572 16.6734 21.0809 16.9077 20.3856 16.9077H9.6656C8.87754 16.9082 8.11703 16.6076 7.52979 16.0635C6.94255 15.5194 6.56989 14.7702 6.4832 13.9593L5.2 2H2" stroke="white" stroke-width="3" stroke-linecap="round" stroke-linejoin="round"/>
<path d="M21.55 24.0026C22.6865 24.0026 23.6078 23.0462 23.6078 21.8665C23.6078 20.6868 22.6865 19.7305 21.55 19.7305C20.4135 19.7305 19.4922 20.6868 19.4922 21.8665C19.4922 23.0462 20.4135 24.0026 21.55 24.0026Z" fill="white"/>
<path d="M9.20233 24.0026C10.3388 24.0026 11.2601 23.0462 11.2601 21.8665C11.2601 20.6868 10.3388 19.7305 9.20233 19.7305C8.06584 19.7305 7.14453 20.6868 7.14453 21.8665C7.14453 23.0462 8.06584 24.0026 9.20233 24.0026Z" fill="white"/>
</svg>
