<svg width="30" height="30" viewBox="0 0 30 30" fill="none" xmlns="http://www.w3.org/2000/svg">
<path d="M22.9703 16.4062C22.9703 16.7771 22.8603 17.1396 22.6543 17.4479C22.4483 17.7563 22.1554 17.9966 21.8128 18.1385C21.4702 18.2804 21.0932 18.3176 20.7295 18.2452C20.3658 18.1729 20.0317 17.9943 19.7695 17.7321C19.5073 17.4699 19.3287 17.1358 19.2563 16.772C19.184 16.4083 19.2211 16.0313 19.363 15.6887C19.5049 15.3461 19.7453 15.0533 20.0536 14.8472C20.3619 14.6412 20.7245 14.5312 21.0953 14.5312C21.5926 14.5312 22.0695 14.7288 22.4211 15.0804C22.7728 15.4321 22.9703 15.909 22.9703 16.4062ZM27.6578 12.6562V22.0312C27.6578 23.0258 27.2627 23.9796 26.5595 24.6829C25.8562 25.3862 24.9024 25.7812 23.9078 25.7812H7.0328C6.03824 25.7812 5.08441 25.3862 4.38115 24.6829C3.67789 23.9796 3.2828 23.0258 3.2828 22.0312V8.07656C3.26838 7.57511 3.35472 7.07586 3.5367 6.60837C3.71869 6.14088 3.99263 5.71466 4.34229 5.35494C4.69196 4.99522 5.11025 4.70932 5.57239 4.51415C6.03453 4.31899 6.53114 4.21854 7.0328 4.21875H22.5016C22.8745 4.21875 23.2322 4.36691 23.4959 4.63063C23.7596 4.89435 23.9078 5.25204 23.9078 5.625C23.9078 5.99796 23.7596 6.35565 23.4959 6.61937C23.2322 6.88309 22.8745 7.03125 22.5016 7.03125H7.0328C6.90708 7.03118 6.78263 7.0564 6.66685 7.10541C6.55108 7.15442 6.44634 7.22621 6.35888 7.31652C6.27141 7.40683 6.20301 7.51381 6.15772 7.63109C6.11244 7.74837 6.09121 7.87357 6.0953 7.99922V8.00859C6.11499 8.25682 6.22891 8.4881 6.41369 8.65502C6.59847 8.82193 6.84011 8.91182 7.08905 8.90625H23.9078C24.9024 8.90625 25.8562 9.30134 26.5595 10.0046C27.2627 10.7079 27.6578 11.6617 27.6578 12.6562ZM24.8453 12.6562C24.8453 12.4076 24.7465 12.1692 24.5707 11.9933C24.3949 11.8175 24.1564 11.7188 23.9078 11.7188H7.08905C6.75377 11.7189 6.41984 11.6764 6.0953 11.5922V22.0312C6.0953 22.2799 6.19407 22.5183 6.36989 22.6942C6.5457 22.87 6.78416 22.9688 7.0328 22.9688H23.9078C24.1564 22.9688 24.3949 22.87 24.5707 22.6942C24.7465 22.5183 24.8453 22.2799 24.8453 22.0312V12.6562Z" fill="white"/>
</svg>
