<svg width="28" height="28" viewBox="0 0 28 28" fill="none" xmlns="http://www.w3.org/2000/svg">
<path d="M14 0.875C17.4812 0.875 20.8198 2.25791 23.2814 4.7195C25.743 7.18109 27.1259 10.5197 27.1259 14.0009C27.1259 17.4821 25.743 20.8208 23.2814 23.2824C20.8198 25.744 17.4812 27.1269 14 27.1269C10.5187 27.1269 7.18011 25.744 4.71852 23.2824C2.25693 20.8208 0.874023 17.4821 0.874023 14.0009C0.874023 10.5197 2.25693 7.18109 4.71852 4.7195C7.18011 2.25791 10.5187 0.875 14 0.875ZM15.9687 8.93375C16.9437 8.93375 17.735 8.25687 17.735 7.25375C17.735 6.25062 16.9418 5.57375 15.9687 5.57375C14.9937 5.57375 14.2062 6.25062 14.2062 7.25375C14.2062 8.25687 14.9937 8.93375 15.9687 8.93375ZM16.3118 19.4844C16.3118 19.2837 16.3812 18.7625 16.3418 18.4662L14.8006 20.24C14.4818 20.5756 14.0825 20.8081 13.895 20.7462C13.8099 20.7149 13.7388 20.6543 13.6945 20.5752C13.6501 20.4962 13.6355 20.4039 13.6531 20.315L16.2218 12.2C16.4318 11.1706 15.8543 10.2312 14.63 10.1112C13.3381 10.1112 11.4368 11.4219 10.28 13.085C10.28 13.2837 10.2425 13.7787 10.2818 14.075L11.8212 12.2994C12.14 11.9675 12.5112 11.7331 12.6987 11.7969C12.7911 11.83 12.8668 11.8981 12.9096 11.9864C12.9523 12.0748 12.9587 12.1763 12.9275 12.2694L10.3812 20.345C10.0868 21.29 10.6437 22.2162 11.9937 22.4262C13.9812 22.4262 15.155 21.1475 16.3137 19.4844H16.3118Z" fill="white"/>
</svg>
