<svg width="30" height="30" viewBox="0 0 30 30" fill="none" xmlns="http://www.w3.org/2000/svg">
<path d="M22.9688 0H7.03125C3.148 0 0 3.148 0 7.03125V22.9688C0 26.852 3.148 30 7.03125 30H22.9688C26.852 30 30 26.852 30 22.9688V7.03125C30 3.148 26.852 0 22.9688 0Z" fill="url(#paint0_radial_504_817)"/>
<path d="M22.9688 0H7.03125C3.148 0 0 3.148 0 7.03125V22.9688C0 26.852 3.148 30 7.03125 30H22.9688C26.852 30 30 26.852 30 22.9688V7.03125C30 3.148 26.852 0 22.9688 0Z" fill="url(#paint1_radial_504_817)"/>
<path d="M15.0001 3.28125C11.8175 3.28125 11.418 3.2952 10.1681 3.35203C8.92051 3.40922 8.06891 3.60668 7.32383 3.89648C6.55297 4.19578 5.89918 4.59621 5.24785 5.24777C4.59594 5.89922 4.19551 6.55301 3.89527 7.32352C3.60465 8.06883 3.40695 8.92078 3.35082 10.1678C3.29492 11.4178 3.28027 11.8174 3.28027 15.0001C3.28027 18.1828 3.29434 18.581 3.35105 19.8309C3.40848 21.0785 3.60594 21.9301 3.89551 22.6752C4.19504 23.4461 4.59547 24.0998 5.24703 24.7512C5.89824 25.4031 6.55203 25.8045 7.3223 26.1038C8.06797 26.3936 8.91969 26.591 10.167 26.6482C11.4171 26.705 11.8162 26.719 14.9987 26.719C18.1816 26.719 18.5798 26.705 19.8297 26.6482C21.0773 26.591 21.9298 26.3936 22.6755 26.1038C23.446 25.8045 24.0989 25.4031 24.75 24.7512C25.4019 24.0998 25.8022 23.4461 26.1025 22.6755C26.3906 21.9301 26.5884 21.0783 26.647 19.8312C26.7031 18.5812 26.7178 18.1828 26.7178 15.0001C26.7178 11.8174 26.7031 11.418 26.647 10.168C26.5884 8.92043 26.3906 8.06895 26.1025 7.32387C25.8022 6.55301 25.4019 5.89922 24.75 5.24777C24.0982 4.59598 23.4463 4.19555 22.6748 3.8966C21.9277 3.60668 21.0757 3.4091 19.8281 3.35203C18.578 3.2952 18.1801 3.28125 14.9964 3.28125H15.0001ZM13.9488 5.39309C14.2609 5.39262 14.609 5.39309 15.0001 5.39309C18.1291 5.39309 18.4999 5.40434 19.7355 5.46047C20.8781 5.51273 21.4982 5.70363 21.9113 5.86406C22.4582 6.07641 22.8481 6.33035 23.258 6.74063C23.6682 7.15078 23.922 7.54137 24.135 8.08828C24.2954 8.50078 24.4865 9.12094 24.5386 10.2635C24.5947 11.4989 24.6069 11.8699 24.6069 14.9974C24.6069 18.1249 24.5947 18.4961 24.5386 19.7313C24.4863 20.8739 24.2954 21.4941 24.135 21.9067C23.9226 22.4536 23.6682 22.843 23.258 23.2529C22.8479 23.6631 22.4585 23.9169 21.9113 24.1294C21.4987 24.2905 20.8781 24.4809 19.7355 24.5332C18.5001 24.5893 18.1291 24.6015 15.0001 24.6015C11.8709 24.6015 11.5 24.5893 10.2648 24.5332C9.12219 24.4805 8.50203 24.2896 8.08859 24.1291C7.5418 23.9167 7.15109 23.6629 6.74094 23.2527C6.33078 22.8425 6.07695 22.4529 5.86402 21.9057C5.70359 21.4931 5.51246 20.873 5.46043 19.7304C5.4043 18.495 5.39305 18.124 5.39305 14.9945C5.39305 11.8651 5.4043 11.496 5.46043 10.2606C5.5127 9.11801 5.70359 8.49785 5.86402 8.08477C6.07648 7.53785 6.33078 7.14727 6.74105 6.73711C7.15121 6.32695 7.5418 6.07301 8.08871 5.8602C8.5018 5.69906 9.12219 5.50863 10.2648 5.45613C11.3458 5.40727 11.7648 5.39262 13.9488 5.39016V5.39309ZM21.2555 7.33887C20.4792 7.33887 19.8493 7.96816 19.8493 8.74465C19.8493 9.52102 20.4792 10.1509 21.2555 10.1509C22.0319 10.1509 22.6618 9.52102 22.6618 8.74465C22.6618 7.96828 22.0319 7.3384 21.2555 7.3384V7.33887ZM15.0001 8.98195C11.6766 8.98195 8.98203 11.6766 8.98203 15.0001C8.98203 18.3237 11.6766 21.017 15.0001 21.017C18.3236 21.017 21.0173 18.3237 21.0173 15.0001C21.0173 11.6767 18.3234 8.98195 14.9998 8.98195H15.0001ZM15.0001 11.0938C17.1574 11.0938 18.9064 12.8426 18.9064 15.0001C18.9064 17.1574 17.1574 18.9064 15.0001 18.9064C12.8427 18.9064 11.0939 17.1574 11.0939 15.0001C11.0939 12.8426 12.8427 11.0938 15.0001 11.0938Z" fill="white"/>
<defs>
<radialGradient id="paint0_radial_504_817" cx="0" cy="0" r="1" gradientUnits="userSpaceOnUse" gradientTransform="translate(7.96875 32.3106) rotate(-90) scale(29.7322 27.6533)">
<stop stop-color="#FFDD55"/>
<stop offset="0.1" stop-color="#FFDD55"/>
<stop offset="0.5" stop-color="#FF543E"/>
<stop offset="1" stop-color="#C837AB"/>
</radialGradient>
<radialGradient id="paint1_radial_504_817" cx="0" cy="0" r="1" gradientUnits="userSpaceOnUse" gradientTransform="translate(-5.02512 2.16105) rotate(78.681) scale(13.2905 54.7837)">
<stop stop-color="#3771C8"/>
<stop offset="0.128" stop-color="#3771C8"/>
<stop offset="1" stop-color="#6600FF" stop-opacity="0"/>
</radialGradient>
</defs>
</svg>
