<svg width="25" height="25" viewBox="0 0 25 25" fill="none" xmlns="http://www.w3.org/2000/svg">
<g clip-path="url(#clip0_504_831)">
<path d="M22.6562 0.586028H2.34375C1.88287 0.581337 1.43896 0.759669 1.10941 1.08189C0.779865 1.40412 0.591604 1.84391 0.585938 2.30478V22.6993C0.592628 23.1595 0.78134 23.5983 1.11078 23.9197C1.44021 24.2411 1.88354 24.4188 2.34375 24.4142H22.6562C23.1172 24.4178 23.5608 24.2389 23.8901 23.9164C24.2195 23.594 24.4079 23.1543 24.4141 22.6935V2.29892C24.4058 1.8394 24.2166 1.40171 23.8874 1.08096C23.5583 0.760216 23.1158 0.582352 22.6562 0.586028Z" fill="#0076B2"/>
<path d="M4.11328 9.51562H7.65039V20.8965H4.11328V9.51562ZM5.88281 3.85156C6.2885 3.85156 6.68508 3.97189 7.02237 4.19732C7.35966 4.42275 7.62251 4.74315 7.77767 5.118C7.93284 5.49284 7.97333 5.90528 7.89404 6.30315C7.81476 6.70102 7.61924 7.06643 7.33224 7.35316C7.04524 7.63988 6.67964 7.83505 6.2817 7.91396C5.88376 7.99287 5.47136 7.95198 5.09666 7.79646C4.72196 7.64094 4.40181 7.37778 4.1767 7.04028C3.95159 6.70277 3.83165 6.30608 3.83203 5.90039C3.83255 5.35683 4.04884 4.83571 4.43338 4.45153C4.81792 4.06736 5.33925 3.85156 5.88281 3.85156ZM9.86914 9.51562H13.2598V11.0781H13.3066C13.7793 10.1836 14.9316 9.24023 16.6523 9.24023C20.2344 9.23242 20.8984 11.5898 20.8984 14.6465V20.8965H17.3613V15.3594C17.3613 14.041 17.3379 12.3437 15.5234 12.3437C13.709 12.3437 13.4004 13.7812 13.4004 15.2734V20.8965H9.86914V9.51562Z" fill="white"/>
</g>
<defs>
<clipPath id="clip0_504_831">
<rect width="25" height="25" fill="white"/>
</clipPath>
</defs>
</svg>
