<svg width="15" height="15" viewBox="0 0 15 15" fill="none" xmlns="http://www.w3.org/2000/svg">
<path d="M3.75 2.8125C3.25272 2.8125 2.77581 3.01004 2.42417 3.36167C2.07254 3.71331 1.875 4.19022 1.875 4.6875V4.87594L7.5 7.905L13.125 4.87688V4.6875C13.125 4.19022 12.9275 3.71331 12.5758 3.36167C12.2242 3.01004 11.7473 2.8125 11.25 2.8125H3.75ZM13.125 5.94094L7.72219 8.85C7.6539 8.88676 7.57756 8.906 7.5 8.906C7.42244 8.906 7.3461 8.88676 7.27781 8.85L1.875 5.94094V10.3125C1.875 10.8098 2.07254 11.2867 2.42417 11.6383C2.77581 11.99 3.25272 12.1875 3.75 12.1875H11.25C11.7473 12.1875 12.2242 11.99 12.5758 11.6383C12.9275 11.2867 13.125 10.8098 13.125 10.3125V5.94094Z" fill="white"/>
</svg>
