<svg width="15" height="15" viewBox="0 0 15 15" fill="none" xmlns="http://www.w3.org/2000/svg">
<path d="M4.20511 1.4496L5.24279 1.13675C5.58526 1.03366 5.95354 1.05867 6.27892 1.20712C6.60431 1.35557 6.86458 1.61731 7.01118 1.94353L7.73868 3.56139C7.86495 3.84206 7.90014 4.15523 7.83932 4.45693C7.7785 4.75863 7.62472 5.0337 7.39958 5.24353L6.29226 6.27532C6.14386 6.41621 6.25636 6.96532 6.79851 7.90496C7.34118 8.84514 7.76065 9.21693 7.95404 9.15907L9.40476 8.7155C9.69882 8.62555 10.0136 8.62988 10.3051 8.72787C10.5966 8.82586 10.8501 9.01261 11.0301 9.26192L12.064 10.695C12.2729 10.9843 12.3696 11.3397 12.3362 11.695C12.3028 12.0503 12.1415 12.3814 11.8824 12.6267L11.0831 13.3837C10.8251 13.6281 10.5069 13.7996 10.1609 13.8808C9.81498 13.962 9.45367 13.95 9.11386 13.846C7.43922 13.3334 5.88833 11.8119 4.44029 9.30318C2.98904 6.79068 2.44101 4.67139 2.82297 2.93996C2.90001 2.59108 3.0687 2.26905 3.31165 2.00708C3.5546 1.74511 3.86302 1.55267 4.20511 1.4496Z" fill="white"/>
</svg>
