<svg width="15" height="15" viewBox="0 0 15 15" fill="none" xmlns="http://www.w3.org/2000/svg">
<path d="M3.08062 10.2383C1.94937 10.5777 1.25 11.0464 1.25 11.5642C1.25 12.5998 4.04813 13.4392 7.5 13.4392C10.9519 13.4392 13.75 12.5998 13.75 11.5642C13.75 11.0464 13.0503 10.5777 11.9194 10.2383" stroke="#01DFFF" stroke-linecap="round" stroke-linejoin="round"/>
<path d="M7.5 10.9375C7.5 10.9375 11.5625 8.2825 11.5625 5.21312C11.5625 3.02437 9.74375 1.25 7.5 1.25C5.25625 1.25 3.4375 3.02437 3.4375 5.21312C3.4375 8.2825 7.5 10.9375 7.5 10.9375Z" stroke="#01DFFF" stroke-linejoin="round"/>
<path d="M7.5 6.875C7.9144 6.875 8.31183 6.71038 8.60485 6.41735C8.89788 6.12433 9.0625 5.7269 9.0625 5.3125C9.0625 4.8981 8.89788 4.50067 8.60485 4.20765C8.31183 3.91462 7.9144 3.75 7.5 3.75C7.0856 3.75 6.68817 3.91462 6.39515 4.20765C6.10212 4.50067 5.9375 4.8981 5.9375 5.3125C5.9375 5.7269 6.10212 6.12433 6.39515 6.41735C6.68817 6.71038 7.0856 6.875 7.5 6.875Z" stroke="#01DFFF" stroke-linejoin="round"/>
</svg>
