<svg width="16" height="20" viewBox="0 0 16 20" fill="none" xmlns="http://www.w3.org/2000/svg">
<path d="M13 0.832031H3C2.33696 0.832031 1.70107 1.12176 1.23223 1.63749C0.763392 2.15321 0.5 2.85269 0.5 3.58203V13.6654C0.5 14.3947 0.763392 15.0942 1.23223 15.6099C1.70107 16.1256 2.33696 16.4154 3 16.4154H5.15833L7.40833 18.8995C7.4862 18.9845 7.57855 19.0517 7.68008 19.0973C7.78161 19.1429 7.89033 19.1661 8 19.1654C8.19862 19.1654 8.39071 19.0874 8.54167 18.9454L11.225 16.4154H13C13.663 16.4154 14.2989 16.1256 14.7678 15.6099C15.2366 15.0942 15.5 14.3947 15.5 13.6654V3.58203C15.5 2.85269 15.2366 2.15321 14.7678 1.63749C14.2989 1.12176 13.663 0.832031 13 0.832031ZM13.8333 13.6654C13.8333 13.9085 13.7455 14.1416 13.5893 14.3135C13.433 14.4855 13.221 14.582 13 14.582H10.9167C10.718 14.582 10.526 14.66 10.375 14.802L8.04167 17.002L6.09167 14.8479C6.0138 14.7629 5.92145 14.6957 5.81992 14.6501C5.71839 14.6045 5.60967 14.5813 5.5 14.582H3C2.77899 14.582 2.56702 14.4855 2.41074 14.3135C2.25446 14.1416 2.16667 13.9085 2.16667 13.6654V3.58203C2.16667 3.33892 2.25446 3.10576 2.41074 2.93385C2.56702 2.76194 2.77899 2.66536 3 2.66536H13C13.221 2.66536 13.433 2.76194 13.5893 2.93385C13.7455 3.10576 13.8333 3.33892 13.8333 3.58203V13.6654Z" fill="white"/>
</svg>
