<svg width="35" height="35" viewBox="0 0 35 35" fill="none" xmlns="http://www.w3.org/2000/svg">
<path d="M17.5158 13.3499C16.4938 13.3499 15.5368 13.7463 14.8122 14.4709C14.091 15.1956 13.6911 16.1526 13.6911 17.1746C13.6911 18.1965 14.091 19.1536 14.8122 19.8782C15.5368 20.5994 16.4938 20.9993 17.5158 20.9993C18.5378 20.9993 19.4948 20.5994 20.2194 19.8782C20.9406 19.1536 21.3405 18.1965 21.3405 17.1746C21.3405 16.1526 20.9406 15.1956 20.2194 14.4709C19.8655 14.1143 19.4442 13.8315 18.9801 13.6391C18.516 13.4466 18.0183 13.3483 17.5158 13.3499ZM31.6081 21.3992L29.3727 19.4885C29.4787 18.8391 29.5334 18.176 29.5334 17.5164C29.5334 16.8567 29.4787 16.1902 29.3727 15.5442L31.6081 13.6335C31.777 13.489 31.8978 13.2965 31.9546 13.0815C32.0114 12.8666 32.0014 12.6395 31.926 12.4304L31.8952 12.3416C31.28 10.6213 30.3582 9.02665 29.1745 7.63501L29.113 7.56323C28.9692 7.39422 28.7777 7.27273 28.5635 7.21476C28.3493 7.1568 28.1226 7.16508 27.9133 7.23853L25.1379 8.22632C24.1125 7.3855 22.9709 6.72241 21.7336 6.26099L21.197 3.35913C21.1565 3.14053 21.0504 2.93941 20.8929 2.78251C20.7354 2.62561 20.5339 2.52035 20.3151 2.48071L20.2228 2.46362C18.4455 2.14233 16.5725 2.14233 14.7951 2.46362L14.7028 2.48071C14.4841 2.52035 14.2825 2.62561 14.125 2.78251C13.9675 2.93941 13.8615 3.14053 13.821 3.35913L13.2809 6.27466C12.0554 6.73976 10.9136 7.40124 9.90058 8.23315L7.10468 7.23853C6.89538 7.1645 6.66851 7.15592 6.45422 7.21391C6.23993 7.27191 6.04836 7.39375 5.90497 7.56323L5.84345 7.63501C4.66183 9.02814 3.74027 10.6223 3.12274 12.3416L3.09198 12.4304C2.93817 12.8577 3.06464 13.3362 3.40985 13.6335L5.67255 15.5647C5.56659 16.2073 5.51532 16.8635 5.51532 17.5129C5.51532 18.1692 5.56659 18.8254 5.67255 19.4612L3.41669 21.3923C3.24783 21.5369 3.12697 21.7294 3.07019 21.9443C3.01341 22.1593 3.02339 22.3864 3.09882 22.5955L3.12958 22.6843C3.74823 24.4036 4.66083 25.9929 5.85028 27.3909L5.91181 27.4626C6.05555 27.6317 6.24712 27.7532 6.46129 27.8111C6.67545 27.8691 6.90215 27.8608 7.11151 27.7874L9.90741 26.7927C10.926 27.6301 12.0607 28.2932 13.2878 28.7512L13.8278 31.6667C13.8683 31.8854 13.9744 32.0865 14.1319 32.2434C14.2894 32.4003 14.4909 32.5055 14.7097 32.5452L14.8019 32.5623C16.5968 32.8853 18.4349 32.8853 20.2297 32.5623L20.322 32.5452C20.5407 32.5055 20.7422 32.4003 20.8998 32.2434C21.0573 32.0865 21.1633 31.8854 21.2038 31.6667L21.7404 28.7649C22.9777 28.3 24.1193 27.6404 25.1447 26.7996L27.9201 27.7874C28.1294 27.8614 28.3563 27.87 28.5706 27.812C28.7849 27.754 28.9764 27.6321 29.1198 27.4626L29.1813 27.3909C30.3708 25.9861 31.2834 24.4036 31.902 22.6843L31.9328 22.5955C32.0798 22.1716 31.9533 21.6965 31.6081 21.3992ZM17.5158 23.1833C14.197 23.1833 11.507 20.4934 11.507 17.1746C11.507 13.8557 14.197 11.1658 17.5158 11.1658C20.8347 11.1658 23.5246 13.8557 23.5246 17.1746C23.5246 20.4934 20.8347 23.1833 17.5158 23.1833Z" fill="white"/>
</svg>
