<svg width="30" height="30" viewBox="0 0 30 30" fill="none" xmlns="http://www.w3.org/2000/svg">
<g clip-path="url(#clip0_577_2706)">
<path d="M2.8125 14.0625V19.6875C2.8125 19.9361 2.71373 20.1746 2.53791 20.3504C2.3621 20.5262 2.12364 20.625 1.875 20.625C1.62636 20.625 1.3879 20.5262 1.21209 20.3504C1.03627 20.1746 0.9375 19.9361 0.9375 19.6875V14.0625C0.9375 13.8139 1.03627 13.5754 1.21209 13.3996C1.3879 13.2238 1.62636 13.125 1.875 13.125C2.12364 13.125 2.3621 13.2238 2.53791 13.3996C2.71373 13.5754 2.8125 13.8139 2.8125 14.0625ZM5.625 10.3125C5.37636 10.3125 5.1379 10.4113 4.96209 10.5871C4.78627 10.7629 4.6875 11.0014 4.6875 11.25V22.5C4.6875 22.7486 4.78627 22.9871 4.96209 23.1629C5.1379 23.3387 5.37636 23.4375 5.625 23.4375C5.87364 23.4375 6.1121 23.3387 6.28791 23.1629C6.46373 22.9871 6.5625 22.7486 6.5625 22.5V11.25C6.5625 11.0014 6.46373 10.7629 6.28791 10.5871C6.1121 10.4113 5.87364 10.3125 5.625 10.3125ZM9.375 9.375C9.12636 9.375 8.8879 9.47377 8.71209 9.64959C8.53627 9.8254 8.4375 10.0639 8.4375 10.3125V22.5C8.4375 22.7486 8.53627 22.9871 8.71209 23.1629C8.8879 23.3387 9.12636 23.4375 9.375 23.4375C9.62364 23.4375 9.8621 23.3387 10.0379 23.1629C10.2137 22.9871 10.3125 22.7486 10.3125 22.5V10.3125C10.3125 10.0639 10.2137 9.8254 10.0379 9.64959C9.8621 9.47377 9.62364 9.375 9.375 9.375ZM13.125 5.625C12.8764 5.625 12.6379 5.72377 12.4621 5.89959C12.2863 6.0754 12.1875 6.31386 12.1875 6.5625V22.5C12.1875 22.7486 12.2863 22.9871 12.4621 23.1629C12.6379 23.3387 12.8764 23.4375 13.125 23.4375C13.3736 23.4375 13.6121 23.3387 13.7879 23.1629C13.9637 22.9871 14.0625 22.7486 14.0625 22.5V6.5625C14.0625 6.31386 13.9637 6.0754 13.7879 5.89959C13.6121 5.72377 13.3736 5.625 13.125 5.625ZM26.1141 12.4617C25.7369 10.285 24.6031 8.31148 22.9128 6.88915C21.2224 5.46682 19.0841 4.68709 16.875 4.6875C16.6264 4.6875 16.3879 4.78627 16.2121 4.96209C16.0363 5.1379 15.9375 5.37636 15.9375 5.625V22.5C15.9375 22.7486 16.0363 22.9871 16.2121 23.1629C16.3879 23.3387 16.6264 23.4375 16.875 23.4375H24.375C25.715 23.4385 27.0113 22.9611 28.0306 22.0913C29.0499 21.2214 29.7252 20.0163 29.9349 18.6928C30.1446 17.3693 29.8749 16.0144 29.1745 14.8721C28.474 13.7297 27.3887 12.875 26.1141 12.4617Z" fill="white"/>
</g>
<defs>
<clipPath id="clip0_577_2706">
<rect width="30" height="30" fill="white"/>
</clipPath>
</defs>
</svg>
