<svg width="23" height="31" viewBox="0 0 23 31" fill="none" xmlns="http://www.w3.org/2000/svg">
<g clip-path="url(#clip0_504_826)">
<path d="M17.045 11.1636C18.7231 12.5902 20.7789 13.4295 22.9992 13.4295V8.34872C22.579 8.34882 22.1599 8.29666 21.7488 8.19308V12.1924C19.5287 12.1924 17.4731 11.3532 15.7947 9.92673V20.2953C15.7947 25.4822 12.2588 29.6867 7.89739 29.6867C6.27005 29.6867 4.75744 29.1016 3.50098 28.0982C4.93506 29.842 6.93498 30.9237 9.14748 30.9237C13.5092 30.9237 17.0452 26.7192 17.0452 21.5321V11.1636H17.045ZM18.5876 6.03772C17.73 4.92354 17.1668 3.48364 17.045 1.89174V1.23828H15.8601C16.1583 3.26151 17.1758 4.99003 18.5876 6.03772ZM6.25954 24.118C5.78039 23.3709 5.52139 22.4569 5.52255 21.5172C5.52255 19.145 7.13983 17.2215 9.13517 17.2215C9.50696 17.2212 9.87657 17.2891 10.231 17.4227V12.2283C9.81681 12.1609 9.39886 12.1321 8.98109 12.1427V16.1857C8.6265 16.052 8.2567 15.9842 7.88472 15.9846C5.88947 15.9846 4.27229 17.9078 4.27229 20.2804C4.27229 21.958 5.08061 23.4104 6.25954 24.118Z" fill="#FF004F"/>
<path d="M15.7944 9.92662C17.473 11.353 19.5283 12.1923 21.7486 12.1923V8.19297C20.5093 7.87902 19.4122 7.10893 18.5873 6.03772C17.1754 4.98992 16.1581 3.26141 15.8599 1.23828H12.7474V21.5318C12.7403 23.8977 11.1258 25.8133 9.13478 25.8133C7.9616 25.8133 6.91923 25.1483 6.25915 24.1179C5.0804 23.4104 4.27198 21.9579 4.27198 20.2805C4.27198 17.9082 5.88917 15.9847 7.88442 15.9847C8.26671 15.9847 8.63516 16.0554 8.98078 16.1858V12.1428C4.69596 12.2481 1.25 16.4115 1.25 21.5319C1.25 24.0881 2.1081 26.4053 3.50086 28.0984C4.75732 29.1016 6.26984 29.6869 7.89727 29.6869C12.2587 29.6869 15.7945 25.4821 15.7945 20.2953V9.92673L15.7944 9.92662Z" fill="black"/>
<path d="M21.7489 8.19148V7.11033C20.6314 7.11235 19.5359 6.74017 18.5877 6.03634C19.427 7.12905 20.5322 7.88258 21.7489 8.1917V8.19148ZM15.8601 1.23679C15.8317 1.04348 15.8099 0.848877 15.7947 0.653459V0H11.4971V20.2938C11.4903 22.6594 9.8758 24.575 7.88469 24.575C7.32022 24.576 6.76347 24.419 6.25941 24.1167C6.9195 25.1469 7.96186 25.8118 9.13504 25.8118C11.126 25.8118 12.7407 23.8964 12.7477 21.5306V1.2369H15.8601V1.23679ZM8.98132 12.1413V10.9901C8.62221 10.9317 8.26017 10.9025 7.89771 10.9027C3.5358 10.9027 0 15.1074 0 20.2938C0 23.5455 1.38961 26.4111 3.5013 28.0968C2.10854 26.4038 1.25045 24.0865 1.25045 21.5305C1.25045 16.4101 4.69631 12.2466 8.98132 12.1413Z" fill="#00F2EA"/>
</g>
<defs>
<clipPath id="clip0_504_826">
<rect width="23" height="31" fill="white"/>
</clipPath>
</defs>
</svg>
