<svg width="15" height="15" viewBox="0 0 15 15" fill="none" xmlns="http://www.w3.org/2000/svg">
<path d="M13.5306 12.8922C13.4894 12.9635 13.4302 13.0227 13.359 13.0638C13.2877 13.105 13.2068 13.1266 13.1245 13.1266H1.87452C1.79228 13.1265 1.7115 13.1048 1.64031 13.0636C1.56912 13.0224 1.51001 12.9633 1.46893 12.892C1.42785 12.8208 1.40623 12.74 1.40625 12.6577C1.40627 12.5755 1.42793 12.4947 1.46905 12.4235C2.36143 10.8807 3.73663 9.77444 5.34151 9.25003C4.54766 8.77745 3.93089 8.05734 3.58592 7.2003C3.24094 6.34326 3.18683 5.39667 3.43191 4.5059C3.67698 3.61514 4.20768 2.82944 4.9425 2.26948C5.67733 1.70952 6.57565 1.40625 7.49952 1.40625C8.42338 1.40625 9.32171 1.70952 10.0565 2.26948C10.7914 2.82944 11.3221 3.61514 11.5671 4.5059C11.8122 5.39667 11.7581 6.34326 11.4131 7.2003C11.0681 8.05734 10.4514 8.77745 9.65753 9.25003C11.2624 9.77444 12.6376 10.8807 13.53 12.4235C13.5712 12.4947 13.593 12.5755 13.5931 12.6578C13.5932 12.74 13.5716 12.8209 13.5306 12.8922Z" fill="white"/>
</svg>
