<svg width="30" height="22" viewBox="0 0 30 22" fill="none" xmlns="http://www.w3.org/2000/svg">
<path d="M29.3374 3.28806C29.1654 2.65253 28.8297 2.07314 28.3639 1.60758C27.8981 1.14202 27.3183 0.80654 26.6824 0.634541C24.3544 0 14.9848 0 14.9848 0C14.9848 0 5.61471 0.0192072 3.28666 0.653748C2.65075 0.825758 2.07101 1.16126 1.60519 1.62684C1.13937 2.09242 0.80372 2.67184 0.631663 3.30739C-0.0725165 7.44139 -0.345681 13.7407 0.650999 17.7093C0.823074 18.3448 1.15873 18.9242 1.62455 19.3898C2.09037 19.8553 2.6701 20.1908 3.306 20.3628C5.63405 20.9973 15.0039 20.9973 15.0039 20.9973C15.0039 20.9973 24.3736 20.9973 26.7015 20.3628C27.3375 20.1908 27.9172 19.8553 28.3831 19.3898C28.8489 18.9242 29.1846 18.3448 29.3567 17.7093C30.0994 13.5694 30.3283 7.27403 29.3374 3.28806Z" fill="#FF0000"/>
<path d="M12.0039 14.9988L19.7767 10.4994L12.0039 6V14.9988Z" fill="white"/>
</svg>
